# xmcd CD database file
#
# Track frame offsets:
#	150
#	13752
#	28824
#	52225
#	64549
#	81124
#	111819
#	129162
#	142016
#	160475
#	176699
#	207160
#	215466
#	226066
#	237907
#
# Disc length: 3270 seconds
#
# Revision: 0
# Processed by: cddbd v1.5.1PL0 Copyright (c) Steve Scherf et al.
# Submitted via: CDex 1.51
#
DISCID=d00cc40f
DTITLE=The blues authority - Times have to change
DYEAR=2003
DGENRE=Blues
TTITLE0=Do not feeld or disturb
TTITLE1=The night that the beast came out
TTITLE2=Times have to change
TTITLE3=Only if you will
TTITLE4=I won't give up
TTITLE5=Write this letter
TTITLE6=Yes or no
TTITLE7=I love you
TTITLE8=Fourty four
TTITLE9=Sit down and talk
TTITLE10=River of tears
TTITLE11=Arrogant woman
TTITLE12=Shot of rhythm and blues
TTITLE13=Ain't afraid of rain
TTITLE14=Rooftop cafe
EXTD=YEAR: 2003
EXTT0=
EXTT1=
EXTT2=
EXTT3=
EXTT4=
EXTT5=
EXTT6=
EXTT7=
EXTT8=
EXTT9=
EXTT10=
EXTT11=
EXTT12=
EXTT13=
EXTT14=
PLAYORDER=
